<?xml version="1.0" encoding="UTF-8"?><svg xmlns="http://www.w3.org/2000/svg" xmlns:xlink="http://www.w3.org/1999/xlink" viewBox="0 0 440.47 379.48"><defs><style>.o{fill:url(#g);}.p{fill:url(#f);}.q{fill:url(#h);}.r{fill:#fff;}</style><linearGradient id="f" x1="171.98" y1="129.91" x2="276.77" y2="129.91" gradientTransform="matrix(1, 0, 0, 1, 0, 0)" gradientUnits="userSpaceOnUse"><stop offset="0" stop-color="#00d2ff"/><stop offset=".46" stop-color="#00d2ff"/><stop offset=".6" stop-color="#00caf6"/><stop offset=".83" stop-color="#00b5de"/><stop offset=".99" stop-color="#00a4ca"/></linearGradient><linearGradient id="g" x1="187.28" y1="181.1" x2="294.1" y2="181.1" gradientTransform="matrix(1, 0, 0, 1, 0, 0)" gradientUnits="userSpaceOnUse"><stop offset="0" stop-color="#514d64"/><stop offset=".12" stop-color="#525571"/><stop offset=".38" stop-color="#556489"/><stop offset=".54" stop-color="#576a92"/><stop offset="1" stop-color="#576a92"/></linearGradient><linearGradient id="h" x1="197.71" y1="249.65" x2="197.71" y2="97.13" gradientTransform="matrix(1, 0, 0, 1, 0, 0)" gradientUnits="userSpaceOnUse"><stop offset="0" stop-color="#e84f2a"/><stop offset=".46" stop-color="#e84f2a"/><stop offset=".61" stop-color="#df4b29"/><stop offset=".87" stop-color="#c74229"/><stop offset="1" stop-color="#b83d29"/></linearGradient></defs><g id="a"/><g id="b"/><g id="c"/><g id="d"/><g id="e"><g><path class="p" d="M273.58,116.8c-11.09-16.4-22.91-29.13-32.74-38.25-12.5-11.61-31.86-11.61-44.36,0-7.42,6.89-15.98,15.84-24.5,26.87,18.93-20.12,34.76,1.3,46.68,12.97,.36,.36,.73,.74,1.1,1.12,4.49,4.64,9.85,11.05,14.73,18.1,2.03,2.94,3.99,5.99,5.76,9.06,4.96,8.62,8.51,17.46,8.51,24.74s-2.41,13.47-6.44,18.59c25.01-7.74,41.75-46.13,31.25-73.19Z"/><path class="o" d="M273.32,116.41v.07h-.01c-.35,2.39-.7,4.76-1.06,7.1v.05c-.13,.77-.25,1.55-.37,2.31,0,.02,0,.04,0,.06-.1,.63-.2,1.25-.3,1.88-.03,.16-.05,.33-.08,.49-.1,.59-.2,1.18-.3,1.76-.03,.19-.07,.39-.1,.58-.1,.58-.21,1.16-.31,1.74-.04,.2-.07,.4-.11,.6-.1,.56-.21,1.11-.32,1.67-.04,.22-.08,.44-.12,.65-.1,.52-.21,1.03-.31,1.55-.05,.25-.1,.51-.15,.76-.1,.5-.22,.99-.32,1.49-.06,.27-.12,.54-.18,.81-.11,.47-.22,.93-.33,1.4-.07,.3-.14,.6-.21,.9-.11,.46-.23,.91-.34,1.37-.08,.3-.15,.61-.23,.91-.11,.43-.23,.86-.35,1.29-.09,.33-.18,.66-.27,.99-.12,.43-.25,.86-.38,1.29-.1,.33-.19,.65-.29,.98-.13,.42-.27,.85-.4,1.27-.11,.33-.21,.66-.32,1-.13,.4-.27,.79-.41,1.19-.12,.36-.24,.71-.37,1.07-.15,.42-.31,.84-.47,1.26-.12,.33-.24,.66-.37,.99-.17,.44-.34,.87-.52,1.31-.13,.32-.25,.63-.38,.95-.17,.41-.35,.82-.52,1.22-.15,.34-.29,.69-.44,1.03-.17,.39-.36,.79-.54,1.18-.16,.36-.32,.72-.49,1.07-.18,.38-.38,.77-.57,1.15-.18,.37-.35,.73-.54,1.1-.2,.39-.41,.78-.62,1.17-.19,.36-.37,.72-.57,1.08-.2,.37-.42,.74-.62,1.11-.21,.38-.42,.76-.64,1.15-.2,.34-.41,.68-.61,1.02-.25,.41-.49,.83-.74,1.24-.24,.38-.49,.77-.73,1.15-.24,.37-.47,.74-.71,1.11-.26,.4-.55,.81-.82,1.21-.24,.35-.47,.71-.72,1.06-.28,.4-.57,.79-.85,1.19-.26,.36-.51,.72-.78,1.09-.31,.42-.64,.84-.96,1.26-.26,.34-.51,.68-.78,1.02-.37,.48-.76,.95-1.15,1.43-.23,.29-.45,.57-.69,.86-.32,.39-.67,.79-1,1.18-.32,.37-.63,.75-.95,1.12-.29,.34-.6,.67-.9,1.01-.39,.43-.76,.86-1.16,1.3-.71,.77-1.44,1.54-2.18,2.32-.37,.47-.75,.92-1.15,1.37-.02,.02-.04,.04-.05,.07-.1,.11-.21,.21-.31,.32-.28,.31-.57,.61-.86,.91,0,0-.02,.02-.03,.03-.03,.03-.06,.06-.09,.09-.11,.11-.23,.21-.34,.31-.28,.27-.56,.54-.85,.79-.14,.12-.28,.24-.42,.36-.32,.27-.64,.54-.97,.8-.05,.04-.11,.09-.16,.13-.02,.02-.05,.04-.07,.06h0s-.07,.05-.1,.08h0c-.07,.06-.15,.11-.23,.17-.28,.21-.57,.42-.86,.62-.11,.08-.22,.17-.34,.24h0l-.04,.03h0c-.07,.05-.15,.1-.23,.14-.79,.52-1.61,1.01-2.45,1.45-.06,.03-.13,.07-.19,.1-1.02,.53-2.07,1.01-3.15,1.43-.18,.07-.35,.14-.53,.21-.48,.17-.97,.33-1.46,.48-.15,.04-.29,.09-.44,.13-.37,.11-.74,.2-1.11,.3-.15,.04-.3,.08-.45,.11-1.01,.23-2.04,.42-3.08,.55-.15,.02-.31,.03-.47,.05-.39,.04-.78,.08-1.17,.1-.16,.01-.31,.02-.47,.03-.53,.03-1.07,.05-1.61,.05s-1.1-.02-1.65-.05c-.03,0-.05,0-.08,0-.53-.03-1.06-.08-1.58-.13h0c-.61-.07-1.2-.15-1.8-.25h-.05c-1.13-.2-2.25-.46-3.34-.78h0c-1.34-.4-2.65-.88-3.91-1.45h0c-.17-.08-.33-.16-.5-.24-.21-.1-.43-.2-.64-.31-.04-.02-.08-.04-.11-.06-.16-.08-.32-.17-.48-.26-.25-.13-.49-.26-.73-.4h0l-.03-.02c-2.11-1.2-4.05-2.66-5.8-4.32-.06-.06-.12-.12-.18-.18-.05-.05-.1-.09-.14-.14-.23-.22-.45-.45-.68-.68l-.04-.04c-.1-.11-.2-.21-.3-.32-.09-.1-.18-.19-.27-.29h0c-.06-.06-.11-.13-.17-.19-.25-.28-.49-.56-.73-.84-.03-.04-.06-.08-.1-.12-.82-1-1.57-2.05-2.25-3.14-.02-.02-.03-.05-.05-.07-.16-.26-.31-.53-.47-.8-.08-.13-.16-.26-.23-.39-.05-.08-.09-.17-.13-.25-.16-.29-.31-.57-.46-.86-.02-.04-.04-.07-.06-.11h0c-.6-1.21-1.11-2.45-1.55-3.73-.01-.04-.03-.08-.04-.12-.08-.24-.15-.48-.22-.72-.05-.17-.11-.34-.16-.5-.01-.04-.02-.07-.03-.11h0c-.02-.07-.04-.15-.06-.22-.48-1.73-.81-3.53-.97-5.37h0c-.05-.59-.08-1.19-.1-1.78h-1.3v6.77h1.56c.05,.84,.11,1.71,.19,2.59,.02,.2,.03,.4,.05,.61,.16,1.81,.39,3.69,.68,5.62,.02,.16,.05,.33,.08,.49,.31,1.99,.71,4.04,1.19,6.1,.03,.12,.05,.23,.08,.35,.5,2.11,1.09,4.24,1.79,6.38,.03,.1,.06,.19,.09,.29,.36,1.08,.74,2.17,1.16,3.25,5.64,14.64,16.69,28.71,37.64,34.27,7.07,1.54,7.89,5.41,11.39,6.81,13.94-4.68,26.05-13.37,34.95-24.69,9.99-12.7,15.97-28.7,15.97-46.12,0-28.42-18.4-55.05-20.78-58.57Z"/><path class="q" d="M188.6,172.78h0c-.02-.46-.04-.92-.04-1.39v-.04h0c0-.5,.02-1.01,.05-1.52v-.04c1.12-16.58,18.86-40.22,30.05-51.41-11.92-11.67-27.75-33.09-46.68-12.97-2.17,2.81-4.35,5.77-6.5,8.85-12.11,21.17-20.75,42.85-20.75,60.72,0,2.21,.11,4.38,.3,6.54,3.32,38.18,35.34,68.13,74.37,68.13,11.16,0,21.75-2.45,31.26-6.85-34.64-4.83-61.39-34.22-62.08-70.02Z"/></g><g><path class="r" d="M60.31,319.6v-41.34h8.8v33.59h17.48v7.75h-26.28Z"/><path class="r" d="M91.52,281.73c0-2.6,2.17-4.65,4.71-4.65s4.71,2.04,4.71,4.65-2.11,4.71-4.71,4.71-4.71-2.11-4.71-4.71Zm.81,37.87v-29.94h7.87v29.94h-7.87Z"/><path class="r" d="M106.72,304.6c0-9.98,5.58-15.68,13.26-15.68,3.66,0,6.94,1.61,9.24,4.52v-3.78h7.93v41.34h-7.93v-15.25c-2.42,3.1-5.7,4.59-9.24,4.59-7.69,0-13.26-5.76-13.26-15.74Zm22.5,5.33v-10.6c-1.3-1.92-4.21-3.41-6.76-3.41-4.46,0-7.56,3.53-7.56,8.68s3.1,8.74,7.56,8.74c2.54,0,5.45-1.55,6.76-3.41Z"/><path class="r" d="M165.63,319.6v-3.78c-2.05,2.29-5.64,4.53-10.54,4.53-6.57,0-9.67-3.59-9.67-9.42v-21.26h7.87v18.16c0,4.15,2.17,5.52,5.52,5.52,3.04,0,5.45-1.67,6.82-3.41v-20.27h7.87v29.94h-7.87Z"/><path class="r" d="M181.07,281.73c0-2.6,2.17-4.65,4.71-4.65s4.71,2.04,4.71,4.65-2.11,4.71-4.71,4.71-4.71-2.11-4.71-4.71Zm.81,37.87v-29.94h7.87v29.94h-7.87Z"/><path class="r" d="M218.82,319.6v-3.84c-2.36,2.98-5.64,4.59-9.24,4.59-7.56,0-13.26-5.7-13.26-15.68s5.64-15.74,13.26-15.74c3.53,0,6.88,1.55,9.24,4.59v-15.25h7.93v41.34h-7.93Zm0-9.67v-10.6c-1.3-1.98-4.15-3.41-6.82-3.41-4.46,0-7.56,3.53-7.56,8.74s3.1,8.68,7.56,8.68c2.66,0,5.52-1.43,6.82-3.41Z"/><path class="r" d="M271.56,319.6v-20.33c0-3.78-1.67-6.2-5.52-6.2-3.1,0-6.38,2.23-7.93,4.59v21.94h-4.65v-20.33c0-3.78-1.61-6.2-5.52-6.2-3.04,0-6.26,2.23-7.87,4.65v21.88h-4.65v-29.94h4.65v4.34c1.24-1.92,5.27-5.08,9.67-5.08s7.19,2.48,8.06,5.58c1.67-2.73,5.7-5.58,10.04-5.58,5.45,0,8.37,3.04,8.37,9.05v21.63h-4.65Z"/><path class="r" d="M284.39,304.6c0-8.68,6.2-15.68,14.75-15.68,9.05,0,14.38,7.07,14.38,16.05v1.18h-24.23c.37,5.64,4.34,10.35,10.79,10.35,3.41,0,6.88-1.36,9.24-3.78l2.23,3.04c-2.98,2.98-7,4.59-11.9,4.59-8.86,0-15.25-6.38-15.25-15.74Zm14.69-11.84c-6.38,0-9.54,5.39-9.79,9.98h19.65c-.06-4.46-3.04-9.98-9.85-9.98Z"/><path class="r" d="M322.43,313.34v-19.59h-4.96v-4.09h4.96v-8.18h4.65v8.18h6.07v4.09h-6.07v18.59c0,2.23,.99,3.84,3.04,3.84,1.3,0,2.54-.56,3.16-1.24l1.36,3.47c-1.18,1.12-2.85,1.92-5.58,1.92-4.4,0-6.63-2.54-6.63-7Z"/><path class="r" d="M359.39,319.6v-3.41c-2.48,2.73-5.89,4.15-9.92,4.15-5.08,0-10.47-3.41-10.47-9.92s5.39-9.85,10.47-9.85c4.09,0,7.5,1.3,9.92,4.09v-5.39c0-4.03-3.22-6.32-7.56-6.32-3.59,0-6.51,1.3-9.17,4.15l-2.17-3.22c3.22-3.35,7.07-4.96,11.96-4.96,6.32,0,11.59,2.85,11.59,10.1v20.58h-4.65Zm0-6.32v-5.64c-1.8-2.48-4.96-3.72-8.24-3.72-4.34,0-7.38,2.73-7.38,6.57s3.04,6.51,7.38,6.51c3.28,0,6.45-1.24,8.24-3.72Z"/><path class="r" d="M373.88,319.6v-41.34h4.65v41.34h-4.65Z"/></g></g><g id="i"/><g id="j"/><g id="k"/><g id="l"/><g id="m"/><g id="n"/></svg>