<?xml version="1.0" encoding="UTF-8" standalone="no"?>
<svg
   viewBox="0 0 387.06002 59.982498"
   version="1.1"
   id="svg87"
   sodipodi:docname="LM LOGO-HORIZONTAL LIGHTBACK-02.svg"
   width="387.06"
   height="59.982498"
   inkscape:version="1.2.1 (ef4d3fba62, 2022-07-19, custom)"
   xmlns:inkscape="http://www.inkscape.org/namespaces/inkscape"
   xmlns:sodipodi="http://sodipodi.sourceforge.net/DTD/sodipodi-0.dtd"
   xmlns="http://www.w3.org/2000/svg"
   xmlns:svg="http://www.w3.org/2000/svg">
  <sodipodi:namedview
     id="namedview89"
     pagecolor="#ffffff"
     bordercolor="#000000"
     borderopacity="0.25"
     inkscape:showpageshadow="2"
     inkscape:pageopacity="0.0"
     inkscape:pagecheckerboard="0"
     inkscape:deskcolor="#d1d1d1"
     showgrid="false"
     inkscape:zoom="0.94558858"
     inkscape:cx="-58.164831"
     inkscape:cy="22.737161"
     inkscape:window-width="1846"
     inkscape:window-height="1136"
     inkscape:window-x="74"
     inkscape:window-y="27"
     inkscape:window-maximized="1"
     inkscape:current-layer="svg87" />
  <defs
     id="defs42">
    <style
       id="style18">.n{fill:url(#k);}.o{fill:url(#j);}.p{fill:#34304a;}</style>
    <linearGradient
       id="j"
       x1="103.68"
       y1="114.84"
       x2="138.64"
       y2="114.84"
       gradientUnits="userSpaceOnUse">
      <stop
         offset="0"
         stop-color="#00d2ff"
         id="stop20" />
      <stop
         offset=".46"
         stop-color="#00d2ff"
         id="stop22" />
      <stop
         offset=".6"
         stop-color="#00caf6"
         id="stop24" />
      <stop
         offset=".83"
         stop-color="#00b5de"
         id="stop26" />
      <stop
         offset=".99"
         stop-color="#00a4ca"
         id="stop28" />
    </linearGradient>
    <linearGradient
       id="k"
       x1="112.26"
       y1="154.78999"
       x2="112.26"
       y2="103.9"
       gradientUnits="userSpaceOnUse">
      <stop
         offset="0"
         stop-color="#e84f2a"
         id="stop31" />
      <stop
         offset=".46"
         stop-color="#e84f2a"
         id="stop33" />
      <stop
         offset=".62"
         stop-color="#df4b29"
         id="stop35" />
      <stop
         offset=".87"
         stop-color="#c74229"
         id="stop37" />
      <stop
         offset="1"
         stop-color="#b83d29"
         id="stop39" />
    </linearGradient>
  </defs>
  <g
     id="a"
     transform="translate(-92.668557,-102.42124)" />
  <g
     id="b"
     transform="translate(-92.668557,-102.42124)" />
  <g
     id="c"
     transform="translate(-92.668557,-102.42124)" />
  <g
     id="d"
     transform="translate(-92.668557,-102.42124)" />
  <g
     id="e"
     transform="translate(-92.668557,-102.42124)" />
  <g
     id="f"
     transform="translate(-92.668557,-102.42124)" />
  <g
     id="g"
     transform="translate(-92.668557,-102.42124)" />
  <g
     id="h"
     transform="translate(-92.668557,-102.42124)" />
  <g
     id="i"
     transform="translate(-94.59,-94.7975)">
    <g
       id="g58">
      <path
         class="o"
         d="m 137.58,110.46 c -3.7,-5.47 -7.64,-9.72 -10.92,-12.76 -4.17,-3.87 -10.63,-3.87 -14.8,0 -2.48,2.3 -5.33,5.29 -8.18,8.97 6.32,-6.71 11.6,0.43 15.58,4.33 0.12,0.12 0.24,0.25 0.37,0.37 1.5,1.55 3.29,3.69 4.92,6.04 0.68,0.98 1.33,2 1.92,3.02 1.66,2.88 2.84,5.83 2.84,8.25 0,2.42 -0.8,4.49 -2.15,6.2 8.35,-2.58 13.93,-15.39 10.43,-24.42 z"
         id="path52"
         style="fill:url(#j)" />
      <path
         class="p"
         d="m 137.49,110.33 v 0.02 0 c -0.12,0.8 -0.23,1.59 -0.35,2.37 v 0.02 c -0.04,0.26 -0.08,0.52 -0.12,0.77 v 0.02 c -0.04,0.21 -0.07,0.42 -0.1,0.63 0,0.05 -0.02,0.11 -0.03,0.16 -0.03,0.2 -0.07,0.39 -0.1,0.59 -0.01,0.06 -0.02,0.13 -0.03,0.2 -0.03,0.19 -0.07,0.39 -0.1,0.58 -0.01,0.07 -0.02,0.13 -0.04,0.2 -0.03,0.19 -0.07,0.37 -0.11,0.56 -0.01,0.07 -0.03,0.15 -0.04,0.22 -0.03,0.17 -0.07,0.35 -0.11,0.52 -0.02,0.08 -0.03,0.17 -0.05,0.25 -0.03,0.17 -0.07,0.33 -0.11,0.5 -0.02,0.09 -0.04,0.18 -0.06,0.27 -0.04,0.16 -0.07,0.31 -0.11,0.47 -0.02,0.1 -0.05,0.2 -0.07,0.3 -0.04,0.15 -0.08,0.3 -0.12,0.46 -0.03,0.1 -0.05,0.2 -0.08,0.3 -0.04,0.14 -0.08,0.29 -0.12,0.43 -0.03,0.11 -0.06,0.22 -0.09,0.33 -0.04,0.14 -0.08,0.29 -0.13,0.43 -0.03,0.11 -0.06,0.22 -0.1,0.33 -0.04,0.14 -0.09,0.28 -0.13,0.42 -0.04,0.11 -0.07,0.22 -0.11,0.33 -0.04,0.13 -0.09,0.26 -0.14,0.4 -0.04,0.12 -0.08,0.24 -0.12,0.36 -0.05,0.14 -0.1,0.28 -0.16,0.42 -0.04,0.11 -0.08,0.22 -0.12,0.33 -0.06,0.15 -0.11,0.29 -0.17,0.44 -0.04,0.11 -0.08,0.21 -0.13,0.32 -0.06,0.14 -0.12,0.27 -0.17,0.41 -0.05,0.11 -0.1,0.23 -0.15,0.34 -0.06,0.13 -0.12,0.26 -0.18,0.39 -0.05,0.12 -0.11,0.24 -0.16,0.36 -0.06,0.13 -0.13,0.26 -0.19,0.39 -0.06,0.12 -0.12,0.24 -0.18,0.37 -0.07,0.13 -0.14,0.26 -0.21,0.39 -0.06,0.12 -0.12,0.24 -0.19,0.36 -0.07,0.12 -0.14,0.25 -0.21,0.37 -0.07,0.13 -0.14,0.25 -0.21,0.38 -0.07,0.11 -0.14,0.23 -0.2,0.34 -0.08,0.14 -0.16,0.28 -0.25,0.41 -0.08,0.13 -0.16,0.26 -0.24,0.38 -0.08,0.12 -0.16,0.25 -0.24,0.37 -0.09,0.13 -0.18,0.27 -0.27,0.4 -0.08,0.12 -0.16,0.24 -0.24,0.35 -0.09,0.13 -0.19,0.26 -0.29,0.4 -0.09,0.12 -0.17,0.24 -0.26,0.36 -0.1,0.14 -0.21,0.28 -0.32,0.42 -0.09,0.11 -0.17,0.23 -0.26,0.34 -0.12,0.16 -0.26,0.32 -0.38,0.48 -0.08,0.1 -0.15,0.19 -0.23,0.29 -0.11,0.13 -0.22,0.26 -0.33,0.39 -0.11,0.12 -0.21,0.25 -0.32,0.37 -0.1,0.11 -0.2,0.22 -0.3,0.34 -0.13,0.14 -0.26,0.29 -0.39,0.43 -0.24,0.26 -0.48,0.51 -0.73,0.77 -0.12,0.16 -0.25,0.31 -0.38,0.46 l -0.02,0.02 c 0,0 -0.07,0.07 -0.1,0.11 -0.09,0.1 -0.19,0.2 -0.29,0.3 v 0 l -0.03,0.04 c 0,0 -0.08,0.07 -0.11,0.1 -0.09,0.09 -0.19,0.18 -0.28,0.26 -0.05,0.04 -0.09,0.08 -0.14,0.12 -0.11,0.09 -0.21,0.18 -0.32,0.27 -0.02,0.01 -0.04,0.03 -0.05,0.04 l -0.02,0.02 v 0 l -0.03,0.03 v 0 c 0,0 -0.05,0.04 -0.08,0.06 -0.09,0.07 -0.19,0.14 -0.29,0.21 -0.04,0.03 -0.07,0.06 -0.11,0.08 h -0.01 c 0,0 -0.05,0.04 -0.08,0.06 -0.26,0.17 -0.54,0.34 -0.82,0.48 l -0.06,0.03 c -0.34,0.18 -0.69,0.34 -1.05,0.48 -0.06,0.02 -0.12,0.05 -0.18,0.07 -0.16,0.06 -0.32,0.11 -0.49,0.16 -0.05,0.01 -0.1,0.03 -0.15,0.04 -0.12,0.04 -0.25,0.07 -0.37,0.1 -0.05,0.01 -0.1,0.03 -0.15,0.04 -0.34,0.08 -0.68,0.14 -1.03,0.18 -0.05,0 -0.1,0.01 -0.16,0.02 -0.13,0.01 -0.26,0.03 -0.39,0.03 -0.05,0 -0.1,0 -0.16,0.01 -0.18,0 -0.36,0.02 -0.54,0.02 -0.18,0 -0.37,0 -0.55,-0.02 h -0.03 c -0.18,-0.01 -0.35,-0.03 -0.53,-0.05 v 0 c -0.2,-0.02 -0.4,-0.05 -0.6,-0.08 h -0.02 c -0.38,-0.07 -0.75,-0.15 -1.11,-0.26 v 0 c -0.45,-0.13 -0.88,-0.29 -1.3,-0.48 v 0 c -0.06,-0.03 -0.11,-0.05 -0.17,-0.08 -0.07,-0.03 -0.14,-0.07 -0.21,-0.1 l -0.04,-0.02 c -0.05,-0.03 -0.11,-0.06 -0.16,-0.09 -0.08,-0.04 -0.16,-0.09 -0.24,-0.13 h -0.01 c -0.7,-0.41 -1.35,-0.89 -1.93,-1.45 l -0.06,-0.06 -0.05,-0.05 c -0.08,-0.07 -0.15,-0.15 -0.23,-0.23 H 112 c 0,0 -0.07,-0.08 -0.1,-0.12 -0.03,-0.03 -0.06,-0.06 -0.09,-0.1 v 0 c 0,0 -0.04,-0.04 -0.06,-0.06 -0.08,-0.09 -0.16,-0.19 -0.24,-0.28 -0.01,-0.01 -0.02,-0.03 -0.03,-0.04 -0.27,-0.33 -0.52,-0.68 -0.75,-1.05 l -0.02,-0.02 c -0.05,-0.09 -0.1,-0.18 -0.16,-0.27 -0.03,-0.04 -0.05,-0.09 -0.08,-0.13 -0.02,-0.03 -0.03,-0.06 -0.04,-0.08 -0.05,-0.1 -0.1,-0.19 -0.15,-0.29 l -0.02,-0.04 v 0 c -0.2,-0.4 -0.37,-0.82 -0.52,-1.24 v -0.04 c -0.04,-0.08 -0.06,-0.16 -0.09,-0.24 -0.02,-0.06 -0.04,-0.11 -0.05,-0.17 v -0.04 h -0.01 c 0,0 -0.01,-0.05 -0.02,-0.07 -0.16,-0.58 -0.27,-1.18 -0.32,-1.79 v 0 c -0.02,-0.2 -0.03,-0.4 -0.03,-0.59 h -0.43 v 2.26 h 0.52 c 0.02,0.28 0.04,0.57 0.06,0.86 0,0.07 0.01,0.13 0.02,0.2 0.05,0.6 0.13,1.23 0.23,1.88 0,0.05 0.02,0.11 0.03,0.16 0.11,0.67 0.24,1.35 0.4,2.04 l 0.03,0.12 c 0.17,0.7 0.36,1.42 0.6,2.13 l 0.03,0.1 c 0.12,0.36 0.25,0.72 0.39,1.08 1.88,4.88 5.57,9.58 12.56,11.44 2.36,0.52 2.63,1.8 3.8,2.27 4.65,-1.56 8.69,-4.46 11.66,-8.24 3.33,-4.24 5.33,-9.58 5.33,-15.39 0,-9.48 -6.14,-18.37 -6.93,-19.54 z"
         id="path54" />
      <path
         class="n"
         d="m 109.22,129.14 v 0 c 0,-0.15 -0.01,-0.31 -0.01,-0.46 v 0 c 0,-0.18 0,-0.35 0.02,-0.52 v 0 c 0.37,-5.55 6.29,-13.44 10.03,-17.17 -3.98,-3.89 -9.26,-11.04 -15.58,-4.33 -0.73,0.94 -1.45,1.92 -2.17,2.95 -4.04,7.06 -6.92,14.3 -6.92,20.26 0,0.74 0.04,1.46 0.1,2.18 1.11,12.74 11.79,22.73 24.82,22.73 3.73,0 7.26,-0.82 10.43,-2.29 -11.56,-1.61 -20.48,-11.42 -20.72,-23.36 z"
         id="path56"
         style="fill:url(#k)" />
    </g>
    <g
       id="g82">
      <path
         class="p"
         d="M 159.49,140.35 V 99.01 h 8.92 v 33.59 h 17.71 v 7.75 z"
         id="path60" />
      <path
         class="p"
         d="m 191.09,102.48 c 0,-2.6 2.2,-4.65 4.77,-4.65 2.57,0 4.77,2.05 4.77,4.65 0,2.6 -2.14,4.71 -4.77,4.71 -2.63,0 -4.77,-2.11 -4.77,-4.71 z m 0.82,37.87 v -29.94 h 7.98 v 29.94 z"
         id="path62" />
      <path
         class="p"
         d="m 206.47,125.35 c 0,-9.98 5.65,-15.68 13.44,-15.68 3.71,0 7.04,1.61 9.36,4.52 v -3.78 h 8.04 v 41.34 h -8.04 V 136.5 c -2.45,3.1 -5.78,4.59 -9.36,4.59 -7.79,0 -13.44,-5.76 -13.44,-15.74 z m 22.8,5.33 v -10.6 c -1.32,-1.92 -4.27,-3.41 -6.85,-3.41 -4.52,0 -7.66,3.53 -7.66,8.68 0,5.15 3.14,8.74 7.66,8.74 2.58,0 5.53,-1.55 6.85,-3.41 z"
         id="path64" />
      <path
         class="p"
         d="m 266.14,140.35 v -3.78 c -2.07,2.29 -5.72,4.52 -10.68,4.52 -6.66,0 -9.8,-3.59 -9.8,-9.42 v -21.26 h 7.98 v 18.16 c 0,4.15 2.2,5.52 5.59,5.52 3.08,0 5.53,-1.67 6.91,-3.41 v -20.27 h 7.98 v 29.94 z"
         id="path66" />
      <path
         class="p"
         d="m 281.75,102.48 c 0,-2.6 2.2,-4.65 4.77,-4.65 2.57,0 4.77,2.05 4.77,4.65 0,2.6 -2.14,4.71 -4.77,4.71 -2.63,0 -4.77,-2.11 -4.77,-4.71 z m 0.82,37.87 v -29.94 h 7.98 v 29.94 z"
         id="path68" />
      <path
         class="p"
         d="m 319.98,140.35 v -3.84 c -2.39,2.98 -5.72,4.59 -9.36,4.59 -7.66,0 -13.44,-5.7 -13.44,-15.68 0,-9.98 5.72,-15.74 13.44,-15.74 3.58,0 6.97,1.55 9.36,4.59 V 99.02 h 8.04 v 41.34 h -8.04 z m 0,-9.67 v -10.6 c -1.32,-1.98 -4.21,-3.41 -6.91,-3.41 -4.52,0 -7.66,3.53 -7.66,8.74 0,5.21 3.14,8.68 7.66,8.68 2.7,0 5.59,-1.43 6.91,-3.41 z"
         id="path70" />
      <path
         class="p"
         d="m 373.39,140.35 v -20.33 c 0,-3.78 -1.7,-6.2 -5.59,-6.2 -3.14,0 -6.47,2.23 -8.04,4.59 v 21.94 h -4.71 v -20.33 c 0,-3.78 -1.63,-6.2 -5.59,-6.2 -3.08,0 -6.34,2.23 -7.98,4.65 v 21.88 h -4.71 v -29.94 h 4.71 v 4.34 c 1.26,-1.92 5.34,-5.08 9.8,-5.08 4.46,0 7.29,2.48 8.17,5.58 1.7,-2.73 5.78,-5.58 10.18,-5.58 5.53,0 8.48,3.04 8.48,9.05 v 21.63 h -4.71 z"
         id="path72" />
      <path
         class="p"
         d="m 386.35,125.35 c 0,-8.68 6.28,-15.68 14.95,-15.68 9.17,0 14.57,7.07 14.57,16.05 v 1.18 h -24.56 c 0.38,5.64 4.4,10.35 10.93,10.35 3.45,0 6.97,-1.36 9.36,-3.78 l 2.26,3.04 c -3.01,2.98 -7.1,4.59 -12.06,4.59 -8.98,0 -15.45,-6.38 -15.45,-15.74 z m 14.89,-11.84 c -6.47,0 -9.67,5.39 -9.92,9.98 h 19.91 c -0.06,-4.46 -3.08,-9.98 -9.99,-9.98 z"
         id="path74" />
      <path
         class="p"
         d="M 424.87,134.09 V 114.5 h -5.03 v -4.09 h 5.03 v -8.18 h 4.71 v 8.18 h 6.16 v 4.09 h -6.16 v 18.59 c 0,2.23 1.01,3.84 3.08,3.84 1.32,0 2.58,-0.56 3.2,-1.24 l 1.38,3.47 c -1.19,1.12 -2.89,1.92 -5.65,1.92 -4.46,0 -6.72,-2.54 -6.72,-7 z"
         id="path76" />
      <path
         class="p"
         d="m 462.3,140.35 v -3.41 c -2.51,2.73 -5.97,4.15 -10.05,4.15 -5.15,0 -10.62,-3.41 -10.62,-9.92 0,-6.51 5.47,-9.85 10.62,-9.85 4.15,0 7.6,1.3 10.05,4.09 v -5.39 c 0,-4.03 -3.27,-6.32 -7.66,-6.32 -3.64,0 -6.6,1.3 -9.3,4.15 l -2.2,-3.22 c 3.27,-3.35 7.16,-4.96 12.12,-4.96 6.41,0 11.75,2.85 11.75,10.1 v 20.58 z m 0,-6.32 v -5.64 c -1.82,-2.48 -5.02,-3.72 -8.35,-3.72 -4.4,0 -7.47,2.73 -7.47,6.57 0,3.84 3.08,6.51 7.47,6.51 3.33,0 6.53,-1.24 8.35,-3.72 z"
         id="path78" />
      <path
         class="p"
         d="M 476.94,140.35 V 99.01 h 4.71 v 41.34 z"
         id="path80" />
    </g>
  </g>
  <g
     id="l"
     transform="translate(-92.668557,-102.42124)" />
  <g
     id="m"
     transform="translate(-92.668557,-102.42124)" />
</svg>
